<svg width="1440" height="1820" viewBox="0 0 1440 1820" fill="none" xmlns="http://www.w3.org/2000/svg">
<path d="M1250.67 421.68C1048.69 196.24 771.108 436.922 505.364 293.04C374.886 222.395 60.1505 -112.976 -87.2614 39.1548C-152.91 106.905 -117.036 198.538 -113.567 293.039C-107.121 468.673 241.313 627.229 425.26 666.087C570.224 696.71 913.18 831.663 796.218 923.013C672.263 1019.82 781.426 1047.1 633.915 1101.08C569.813 1124.54 366.644 1080.65 196.147 1120.04C-6.76917 1166.91 -180.563 1418.75 -257.008 1446.24C-361.052 1483.66 -185.065 1684.67 -192.786 1795.45C-201.184 1915.94 276.153 1550.15 374.331 1619.82C568.288 1757.47 717.899 1557.92 860.245 1366.94C947.876 1249.36 1143.95 1272.97 1219.1 1146.97C1313.08 989.398 1488.17 1052.87 1570.01 888.596C1663.27 701.402 1390.05 577.257 1250.67 421.68Z" fill="#F2BBC2" fill-opacity="0.17"/>
</svg>
